RobotoExtremo-opsz144-wght100-GRAD1.ufo
<glyph name="quotedbl" format="2">
  <advance width="400"/>
  <unicode hex="0022"/>
  <outline>
    <contour>
      <point x="87.36" y="1090.92" type="line"/>
      <point x="84.72" y="1354.92" type="line"/>
      <point x="84.72" y="1456.0" type="line"/>
      <point x="101.44" y="1456.0" type="line"/>
      <point x="101.44" y="1354.92" type="line"/>
      <point x="98.96000000000001" y="1090.92" type="line"/>
    </contour>
    <contour>
      <point x="301.2" y="1090.92" type="line"/>
      <point x="298.56" y="1354.92" type="line"/>
      <point x="298.56" y="1456.0" type="line"/>
      <point x="315.28" y="1456.0" type="line"/>
      <point x="315.28" y="1354.92" type="line"/>
      <point x="312.8" y="1090.92" type="line"/>
    </contour>
  </outline>
</glyph>
<glyph name="ampersand" format="2">
  <advance width="1042"/>
  <unicode hex="0026"/>
  <outline>
    <contour>
      <point x="70.0" y="372.0" type="qcurve" smooth="yes"/>
      <point x="70.0" y="501.96"/>
      <point x="246.56" y="687.88"/>
      <point x="392.96" y="788.4" type="qcurve" smooth="yes"/>
      <point x="537.1600000000001" y="886.8" type="line" smooth="yes"/>
      <point x="615.24" y="940.68"/>
      <point x="698.52" y="1073.68"/>
      <point x="698.52" y="1189.56" type="qcurve" smooth="yes"/>
      <point x="698.52" y="1311.08"/>
      <point x="591.04" y="1468.24"/>
      <point x="473.76" y="1468.24" type="qcurve" smooth="yes"/>
      <point x="360.64" y="1468.24"/>
      <point x="213.8" y="1298.92"/>
      <point x="213.8" y="1147.56" type="qcurve" smooth="yes"/>
      <point x="213.8" y="1059.16"/>
      <point x="267.08" y="906.68"/>
      <point x="352.36" y="800.56" type="qcurve" smooth="yes"/>
      <point x="992.48" y="0.0" type="line"/>
      <point x="969.88" y="0.0" type="line"/>
      <point x="340.6" y="785.4" type="line" smooth="yes"/>
      <point x="247.8" y="902.16"/>
      <point x="193.08" y="1055.56"/>
      <point x="193.08" y="1147.56" type="qcurve" smooth="yes"/>
      <point x="193.08" y="1308.08"/>
      <point x="350.84" y="1486.0"/>
      <point x="473.76" y="1486.0" type="qcurve" smooth="yes"/>
      <point x="600.0" y="1486.0"/>
      <point x="718.92" y="1318.08"/>
      <point x="718.92" y="1190.56" type="qcurve" smooth="yes"/>
      <point x="718.92" y="1069.08"/>
      <point x="628.72" y="927.76"/>
      <point x="545.6" y="870.8" type="qcurve" smooth="yes"/>
      <point x="403.24" y="773.4" type="line" smooth="yes"/>
      <point x="260.4" y="675.12"/>
      <point x="91.04" y="496.56"/>
      <point x="91.04" y="375.76" type="qcurve" smooth="yes"/>
      <point x="91.04" y="227.96"/>
      <point x="278.96000000000004" y="-2.240000000000002"/>
      <point x="441.84" y="-2.240000000000002" type="qcurve" smooth="yes"/>
      <point x="669.16" y="-2.240000000000002"/>
      <point x="927.04" y="364.48"/>
      <point x="927.04" y="674.0" type="qcurve"/>
      <point x="947.6" y="674.0" type="line"/>
      <point x="947.6" y="358.0"/>
      <point x="680.64" y="-20.0"/>
      <point x="441.84" y="-20.0" type="qcurve" smooth="yes"/>
      <point x="269.52" y="-20.0"/>
      <point x="70.0" y="218.04"/>
    </contour>
  </outline>
</glyph>
<glyph name="quotesingle" format="2">
  <advance width="190"/>
  <unicode hex="0027"/>
  <outline>
    <contour>
      <point x="89.28" y="1090.92" type="line"/>
      <point x="86.32" y="1354.92" type="line"/>
      <point x="86.32" y="1456.0" type="line"/>
      <point x="103.68" y="1456.0" type="line"/>
      <point x="103.68" y="1354.92" type="line"/>
      <point x="100.72" y="1090.92" type="line"/>
    </contour>
  </outline>
</glyph>
<glyph name="parenleft" format="2">
  <advance width="503"/>
  <unicode hex="0028"/>
  <outline>
    <contour>
      <point x="483.0" y="-436.32" type="line"/>
      <point x="290.44" y="-358.6"/>
      <point x="96.64" y="129.56"/>
      <point x="96.64" y="515.0" type="qcurve" smooth="yes"/>
      <point x="96.64" y="525.0" type="line" smooth="yes"/>
      <point x="96.64" y="909.84"/>
      <point x="285.0" y="1395.72"/>
      <point x="482.84" y="1476.0" type="qcurve"/>
      <point x="482.84" y="1460.32" type="line"/>
      <point x="304.16" y="1382.48"/>
      <point x="115.6" y="903.84"/>
      <point x="115.6" y="532.0" type="qcurve" smooth="yes"/>
      <point x="115.6" y="508.0" type="line" smooth="yes"/>
      <point x="115.6" y="138.92000000000002"/>
      <point x="303.44" y="-345.0"/>
      <point x="483.0" y="-420.32" type="qcurve"/>
    </contour>
  </outline>
</glyph>
<glyph name="comma" format="2">
  <advance width="452"/>
  <unicode hex="002C"/>
  <outline>
    <contour>
      <point x="145.2" y="-147.88" type="line"/>
      <point x="185.16" y="-95.6"/>
      <point x="217.8" y="9.76"/>
      <point x="211.8" y="106.84" type="qcurve" smooth="yes"/>
      <point x="209.8" y="147.84" type="line"/>
      <point x="230.64" y="148.84" type="line"/>
      <point x="232.64" y="108.84" type="line" smooth="yes"/>
      <point x="238.64" y="6.16"/>
      <point x="203.08" y="-102.76"/>
      <point x="158.84" y="-159.0" type="qcurve"/>
    </contour>
  </outline>
</glyph>
<glyph name="one" format="2">
  <advance width="900"/>
  <unicode hex="0031"/>
  <outline>
    <contour>
      <point x="490.48" y="0.0" type="line"/>
      <point x="490.48" y="1454.76" type="line"/>
      <point x="183.0" y="1326.04" type="line"/>
      <point x="179.0" y="1345.0" type="line"/>
      <point x="491.32" y="1476.0" type="line"/>
      <point x="510.88" y="1476.0" type="line"/>
      <point x="510.88" y="0.0" type="line"/>
    </contour>
  </outline>
</glyph>
<glyph name="three" format="2">
  <advance width="900"/>
  <unicode hex="0033"/>
  <outline>
    <contour>
      <point x="65.2" y="378.68" type="qcurve" smooth="yes"/>
      <point x="65.2" y="398.68" type="line"/>
      <point x="84.08" y="398.68" type="line"/>
      <point x="84.08" y="378.68" type="line" smooth="yes"/>
      <point x="84.08" y="190.72"/>
      <point x="279.04" y="0.08000000000000007"/>
      <point x="442.2" y="0.08000000000000007" type="qcurve" smooth="yes"/>
      <point x="611.52" y="0.08000000000000007"/>
      <point x="812.48" y="211.04"/>
      <point x="812.48" y="394.68" type="qcurve" smooth="yes"/>
      <point x="812.48" y="570.04"/>
      <point x="583.36" y="748.4"/>
      <point x="424.2" y="748.4" type="qcurve" smooth="yes"/>
      <point x="244.16000000000003" y="748.4" type="line"/>
      <point x="244.16000000000003" y="768.8" type="line"/>
      <point x="416.2" y="768.8" type="line" smooth="yes"/>
      <point x="565.36" y="768.8"/>
      <point x="763.48" y="956.8"/>
      <point x="763.48" y="1116.28" type="qcurve" smooth="yes"/>
      <point x="763.48" y="1293.6"/>
      <point x="590.36" y="1455.92"/>
      <point x="450.2" y="1455.92" type="qcurve" smooth="yes"/>
      <point x="305.04" y="1455.92"/>
      <point x="122.08000000000001" y="1273.28"/>
      <point x="122.08000000000001" y="1101.32" type="qcurve" smooth="yes"/>
      <point x="122.08000000000001" y="1081.32" type="line"/>
      <point x="102.2" y="1081.32" type="line"/>
      <point x="102.2" y="1101.32" type="line" smooth="yes"/>
      <point x="102.2" y="1283.92"/>
      <point x="295.4" y="1476.0"/>
      <point x="450.2" y="1476.0" type="qcurve" smooth="yes"/>
      <point x="605.0" y="1476.0"/>
      <point x="784.68" y="1304.04"/>
      <point x="784.68" y="1118.24" type="qcurve" smooth="yes"/>
      <point x="784.68" y="947.72"/>
      <point x="591.88" y="768.64"/>
      <point x="471.76" y="761.0" type="qcurve"/>
      <point x="471.76" y="759.0" type="line"/>
      <point x="601.56" y="754.68"/>
      <point x="833.68" y="578.96"/>
      <point x="833.68" y="392.76" type="qcurve" smooth="yes"/>
      <point x="833.68" y="202.96"/>
      <point x="623.0" y="-20.0"/>
      <point x="442.2" y="-20.0" type="qcurve" smooth="yes"/>
      <point x="270.4" y="-20.0"/>
      <point x="65.2" y="175.08"/>
    </contour>
  </outline>
</glyph>
<glyph name="five" format="2">
  <advance width="900"/>
  <unicode hex="0035"/>
  <outline>
    <contour>
      <point x="65.36" y="373.68" type="qcurve" smooth="yes"/>
      <point x="65.36" y="393.68" type="line"/>
      <point x="86.4" y="393.68" type="line"/>
      <point x="86.4" y="373.68" type="line" smooth="yes"/>
      <point x="86.4" y="199.56"/>
      <point x="303.16" y="0.08000000000000007"/>
      <point x="461.32" y="0.08000000000000007" type="qcurve" smooth="yes"/>
      <point x="627.48" y="0.08000000000000007"/>
      <point x="835.4" y="229.8"/>
      <point x="835.4" y="465.0" type="qcurve" smooth="yes"/>
      <point x="835.4" y="692.2"/>
      <point x="635.48" y="899.92"/>
      <point x="476.32" y="899.92" type="qcurve" smooth="yes"/>
      <point x="368.32" y="899.92"/>
      <point x="187.12" y="790.76"/>
      <point x="136.56" y="706.2" type="qcurve"/>
      <point x="117.48" y="714.28" type="line"/>
      <point x="189.8" y="1456.0" type="line"/>
      <point x="785.32" y="1456.0" type="line"/>
      <point x="785.32" y="1434.32" type="line"/>
      <point x="207.44" y="1434.32" type="line"/>
      <point x="139.4" y="738.84" type="line"/>
      <point x="176.4" y="797.96"/>
      <point x="355.88" y="919.0"/>
      <point x="481.16" y="919.0" type="qcurve" smooth="yes"/>
      <point x="646.36" y="919.0"/>
      <point x="855.96" y="699.0"/>
      <point x="855.96" y="465.0" type="qcurve" smooth="yes"/>
      <point x="855.96" y="218.0"/>
      <point x="638.12" y="-20.0"/>
      <point x="461.32" y="-20.0" type="qcurve" smooth="yes"/>
      <point x="292.36" y="-20.0"/>
      <point x="65.36" y="190.08"/>
    </contour>
  </outline>
</glyph>
<glyph name="nine" format="2">
  <advance width="900"/>
  <unicode hex="0039"/>
  <outline>
    <contour>
      <point x="43.480000000000004" y="998.44" type="qcurve" smooth="yes"/>
      <point x="43.480000000000004" y="1233.56"/>
      <point x="259.64" y="1476.0"/>
      <point x="436.44" y="1476.0" type="qcurve" smooth="yes"/>
      <point x="619.92" y="1476.0"/>
      <point x="841.08" y="1176.0"/>
      <point x="841.08" y="842.0" type="qcurve" smooth="yes"/>
      <point x="841.08" y="812.0" type="line" smooth="yes"/>
      <point x="841.08" y="397.0"/>
      <point x="503.08" y="-20.0"/>
      <point x="222.48000000000002" y="-20.0" type="qcurve" smooth="yes"/>
      <point x="203.48" y="-20.0" type="line"/>
      <point x="203.48" y="1.040000000000001" type="line"/>
      <point x="222.48000000000002" y="1.040000000000001" type="line" smooth="yes"/>
      <point x="490.8" y="1.040000000000001"/>
      <point x="821.8" y="410.76"/>
      <point x="821.8" y="822.0" type="qcurve" smooth="yes"/>
      <point x="821.8" y="842.0" type="line" smooth="yes"/>
      <point x="821.8" y="1164.56"/>
      <point x="607.0" y="1455.92"/>
      <point x="436.44" y="1455.92" type="qcurve" smooth="yes"/>
      <point x="269.88" y="1455.92"/>
      <point x="64.04" y="1223.92"/>
      <point x="64.04" y="998.6" type="qcurve" smooth="yes"/>
      <point x="64.04" y="795.12"/>
      <point x="263.88" y="587.84"/>
      <point x="411.44" y="587.84" type="qcurve" smooth="yes"/>
      <point x="575.6" y="587.84"/>
      <point x="805.84" y="842.12"/>
      <point x="815.84" y="993.44" type="qcurve"/>
      <point x="827.2" y="993.44" type="line"/>
      <point x="817.2" y="831.48"/>
      <point x="578.56" y="568.4"/>
      <point x="409.16" y="568.4" type="qcurve" smooth="yes"/>
      <point x="252.12" y="568.4"/>
      <point x="43.480000000000004" y="783.48"/>
    </contour>
  </outline>
</glyph>
<glyph name="colon" format="2">
  <advance width="452"/>
  <unicode hex="003A"/>
  <outline>
    <contour>
      <point x="194.56" y="22.560000000000002" type="qcurve" smooth="yes"/>
      <point x="194.56" y="36.120000000000005"/>
      <point x="211.28" y="53.96000000000001"/>
      <point x="226.0" y="53.96000000000001" type="qcurve" smooth="yes"/>
      <point x="241.56" y="53.96000000000001"/>
      <point x="257.44" y="36.120000000000005"/>
      <point x="257.44" y="22.560000000000002" type="qcurve" smooth="yes"/>
      <point x="257.44" y="7.84"/>
      <point x="240.56" y="-10.0"/>
      <point x="225.0" y="-10.0" type="qcurve" smooth="yes"/>
      <point x="209.28" y="-10.0"/>
      <point x="194.56" y="7.84"/>
    </contour>
    <contour>
      <point x="194.56" y="890.72" type="qcurve" smooth="yes"/>
      <point x="194.56" y="904.44"/>
      <point x="211.28" y="922.28"/>
      <point x="226.0" y="922.28" type="qcurve" smooth="yes"/>
      <point x="241.56" y="922.28"/>
      <point x="257.44" y="904.44"/>
      <point x="257.44" y="890.72" type="qcurve" smooth="yes"/>
      <point x="257.44" y="876.16"/>
      <point x="240.56" y="858.32"/>
      <point x="225.0" y="858.32" type="qcurve" smooth="yes"/>
      <point x="209.28" y="858.32"/>
      <point x="194.56" y="876.16"/>
    </contour>
  </outline>
</glyph>
<glyph name="less" format="2">
  <advance width="941"/>
  <unicode hex="003C"/>
  <outline>
    <contour>
      <point x="840.9999999999999" y="307.36" type="line"/>
      <point x="100.0" y="661.56" type="line"/>
      <point x="100.0" y="686.08" type="line"/>
      <point x="840.9999999999999" y="1042.28" type="line"/>
      <point x="840.9999999999999" y="1016.56" type="line"/>
      <point x="119.68" y="673.52" type="line"/>
      <point x="840.9999999999999" y="331.48" type="line"/>
    </contour>
  </outline>
</glyph>
<glyph name="question" format="2">
  <advance width="782"/>
  <unicode hex="003F"/>
  <outline>
    <contour>
      <point x="318.88" y="22.560000000000002" type="qcurve" smooth="yes"/>
      <point x="318.88" y="36.120000000000005"/>
      <point x="335.76" y="53.96000000000001"/>
      <point x="350.32" y="53.96000000000001" type="qcurve" smooth="yes"/>
      <point x="366.04" y="53.96000000000001"/>
      <point x="381.76" y="36.120000000000005"/>
      <point x="381.76" y="22.560000000000002" type="qcurve" smooth="yes"/>
      <point x="381.76" y="7.84"/>
      <point x="365.04" y="-10.0"/>
      <point x="349.32" y="-10.0" type="qcurve" smooth="yes"/>
      <point x="333.76" y="-10.0"/>
      <point x="318.88" y="7.84"/>
    </contour>
    <contour>
      <point x="65.0" y="1079.28" type="line"/>
      <point x="65.0" y="1125.04" type="line" smooth="yes"/>
      <point x="65.0" y="1278.52"/>
      <point x="246.72" y="1476.0"/>
      <point x="398.16" y="1476.0" type="qcurve" smooth="yes"/>
      <point x="549.6" y="1476.0"/>
      <point x="703.88" y="1321.52"/>
      <point x="703.88" y="1177.52" type="qcurve" smooth="yes"/>
      <point x="703.88" y="1044.88"/>
      <point x="587.3199999999999" y="889.44"/>
      <point x="484.32" y="814.76" type="qcurve" smooth="yes"/>
      <point x="384.52" y="743.44"/>
      <point x="357.08" y="531.72"/>
      <point x="357.08" y="425.32" type="qcurve" smooth="yes"/>
      <point x="357.08" y="415.32" type="line"/>
      <point x="336.36" y="415.32" type="line"/>
      <point x="336.36" y="425.32" type="line" smooth="yes"/>
      <point x="336.36" y="538.68"/>
      <point x="365.12" y="751.96"/>
      <point x="469.32" y="828.32" type="qcurve" smooth="yes"/>
      <point x="572.88" y="902.92"/>
      <point x="683.0" y="1051.12"/>
      <point x="683.0" y="1177.52" type="qcurve" smooth="yes"/>
      <point x="683.0" y="1310.2"/>
      <point x="538.0" y="1458.2"/>
      <point x="398.16" y="1458.2" type="qcurve" smooth="yes"/>
      <point x="257.15999999999997" y="1458.2"/>
      <point x="85.88" y="1267.24"/>
      <point x="85.88" y="1113.04" type="qcurve" smooth="yes"/>
      <point x="85.88" y="1079.28" type="line"/>
    </contour>
  </outline>
</glyph>
<glyph name="B" format="2">
  <advance width="986"/>
  <unicode hex="0042"/>
  <outline>
    <contour>
      <point x="147.76" y="0.0" type="line"/>
      <point x="147.76" y="1456.0" type="line"/>
      <point x="505.32" y="1456.0" type="line" smooth="yes"/>
      <point x="686.12" y="1456.0"/>
      <point x="888.92" y="1299.0"/>
      <point x="888.92" y="1111.0" type="qcurve" smooth="yes"/>
      <point x="888.92" y="952.0"/>
      <point x="740.64" y="770.36"/>
      <point x="609.24" y="763.0" type="qcurve"/>
      <point x="609.24" y="762.0" type="line"/>
      <point x="748.48" y="757.48"/>
      <point x="927.92" y="567.0"/>
      <point x="927.92" y="385.0" type="qcurve" smooth="yes"/>
      <point x="927.92" y="207.0"/>
      <point x="739.12" y="0.0"/>
      <point x="537.3199999999999" y="0.0" type="qcurve" smooth="yes"/>
    </contour>
    <contour>
      <point x="167.84" y="18.32" type="line"/>
      <point x="542.3199999999999" y="18.32" type="line" smooth="yes"/>
      <point x="727.0" y="18.32"/>
      <point x="908.0" y="213.8"/>
      <point x="908.0" y="386.24" type="qcurve" smooth="yes"/>
      <point x="908.0" y="555.36"/>
      <point x="728.0" y="753.16"/>
      <point x="542.3199999999999" y="753.16" type="qcurve" smooth="yes"/>
      <point x="167.84" y="753.16" type="line"/>
    </contour>
    <contour>
      <point x="167.84" y="770.84" type="line"/>
      <point x="531.3199999999999" y="770.84" type="line" smooth="yes"/>
      <point x="717.0" y="770.84"/>
      <point x="867.0" y="961.32"/>
      <point x="867.0" y="1108.44" type="qcurve" smooth="yes"/>
      <point x="867.0" y="1288.56"/>
      <point x="675.0" y="1437.68"/>
      <point x="505.32" y="1437.68" type="qcurve" smooth="yes"/>
      <point x="167.84" y="1437.68" type="line"/>
    </contour>
  </outline>
</glyph>
<glyph name="C" format="2">
  <advance width="1099"/>
  <unicode hex="0043"/>
  <anchor x="588.0" y="0" name="bottom"/>
  <outline>
    <contour>
      <point x="88.8" y="720.0" type="qcurve" smooth="yes"/>
      <point x="88.8" y="752.0" type="line" smooth="yes"/>
      <point x="88.8" y="1155.0"/>
      <point x="353.16" y="1476.0"/>
      <point x="593.48" y="1476.0" type="qcurve" smooth="yes"/>
      <point x="810.64" y="1476.0"/>
      <point x="1047.6" y="1248.12"/>
      <point x="1049.3600000000001" y="1020.52" type="qcurve" smooth="yes"/>
      <point x="1049.52" y="978.92" type="line"/>
      <point x="1028.96" y="978.92" type="line"/>
      <point x="1028.8" y="1014.52" type="line" smooth="yes"/>
      <point x="1028.0" y="1240.76"/>
      <point x="805.52" y="1456.6"/>
      <point x="592.48" y="1456.6" type="qcurve" smooth="yes"/>
      <point x="360.64" y="1456.6"/>
      <point x="109.2" y="1148.04"/>
      <point x="109.2" y="770.0" type="qcurve" smooth="yes"/>
      <point x="109.2" y="702.0" type="line" smooth="yes"/>
      <point x="109.2" y="309.96"/>
      <point x="361.64" y="0.40000000000000036"/>
      <point x="588.48" y="0.40000000000000036" type="qcurve" smooth="yes"/>
      <point x="806.52" y="0.40000000000000036"/>
      <point x="1030.08" y="227.4"/>
      <point x="1028.96" y="441.16" type="qcurve" smooth="yes"/>
      <point x="1028.96" y="477.08" type="line"/>
      <point x="1049.52" y="477.08" type="line"/>
      <point x="1049.52" y="435.48" type="line" smooth="yes"/>
      <point x="1052.72" y="219.72"/>
      <point x="813.64" y="-20.0"/>
      <point x="588.48" y="-20.0" type="qcurve" smooth="yes"/>
      <point x="355.16" y="-20.0"/>
      <point x="88.8" y="300.0"/>
    </contour>
  </outline>
</glyph>
<glyph name="J" format="2">
  <advance width="852"/>
  <unicode hex="004A"/>
  <outline>
    <contour>
      <point x="37.0" y="400.12" type="qcurve" smooth="yes"/>
      <point x="37.0" y="440.12" type="line"/>
      <point x="56.92" y="440.12" type="line"/>
      <point x="56.92" y="409.12" type="line" smooth="yes"/>
      <point x="56.92" y="192.44"/>
      <point x="232.0" y="0.08000000000000007"/>
      <point x="383.32" y="0.08000000000000007" type="qcurve" smooth="yes"/>
      <point x="539.8" y="0.08000000000000007"/>
      <point x="708.88" y="216.08"/>
      <point x="708.88" y="468.92" type="qcurve" smooth="yes"/>
      <point x="708.88" y="1456.0" type="line"/>
      <point x="728.8" y="1456.0" type="line"/>
      <point x="728.8" y="459.92" type="line" smooth="yes"/>
      <point x="728.8" y="208.28"/>
      <point x="549.44" y="-20.0"/>
      <point x="383.32" y="-20.0" type="qcurve" smooth="yes"/>
      <point x="224.36" y="-20.0"/>
      <point x="37.0" y="184.48"/>
    </contour>
  </outline>
</glyph>
<glyph name="K" format="2">
  <advance width="910"/>
  <unicode hex="004B"/>
  <outline>
    <contour>
      <point x="148" y="0.0" type="line"/>
      <point x="148" y="1456.0" type="line"/>
      <point x="168" y="1456.0" type="line"/>
      <point x="168" y="560" type="line"/>
      <point x="889" y="1456.0" type="line"/>
      <point x="912" y="1456.0" type="line"/>
      <point x="168" y="531" type="line"/>
      <point x="168" y="0.0" type="line"/>
    </contour>
    <contour>
      <point x="945" y="0.0" type="line"/>
      <point x="410" y="837" type="line"/>
      <point x="421" y="854" type="line"/>
      <point x="970" y="0.0" type="line"/>
    </contour>
  </outline>
</glyph>
<glyph name="O" format="2">
  <advance width="1178"/>
  <unicode hex="004F"/>
  <anchor x="585.0" y="1432.0" name="top"/>
  <outline>
    <contour>
      <point x="88.8" y="720.0" type="qcurve" smooth="yes"/>
      <point x="88.8" y="752.0" type="line" smooth="yes"/>
      <point x="88.8" y="1142.0"/>
      <point x="362.56" y="1476.0"/>
      <point x="588.52" y="1476.0" type="qcurve" smooth="yes"/>
      <point x="815.48" y="1476.0"/>
      <point x="1089.2" y="1142.0"/>
      <point x="1089.2" y="752.0" type="qcurve" smooth="yes"/>
      <point x="1089.2" y="720.0" type="line" smooth="yes"/>
      <point x="1089.2" y="310.0"/>
      <point x="815.48" y="-20.0"/>
      <point x="588.52" y="-20.0" type="qcurve" smooth="yes"/>
      <point x="362.56" y="-20.0"/>
      <point x="88.8" y="310.0"/>
    </contour>
    <contour>
      <point x="109.2" y="702.0" type="line" smooth="yes"/>
      <point x="109.2" y="319.96"/>
      <point x="370.2" y="0.40000000000000036"/>
      <point x="587.52" y="0.40000000000000036" type="qcurve" smooth="yes"/>
      <point x="809.0" y="0.40000000000000036"/>
      <point x="1068.96" y="318.96"/>
      <point x="1068.96" y="704.0" type="qcurve" smooth="yes"/>
      <point x="1068.96" y="770.0" type="line" smooth="yes"/>
      <point x="1068.96" y="1133.04"/>
      <point x="808.0" y="1456.6"/>
      <point x="588.52" y="1456.6" type="qcurve" smooth="yes"/>
      <point x="370.2" y="1456.6"/>
      <point x="109.2" y="1133.04"/>
      <point x="109.2" y="770.0" type="qcurve" smooth="yes"/>
    </contour>
  </outline>
</glyph>
<glyph name="Q" format="2">
  <advance width="1179"/>
  <unicode hex="0051"/>
  <outline>
    <contour>
      <point x="89" y="720.0" type="qcurve" smooth="yes"/>
      <point x="89" y="752.0" type="line" smooth="yes"/>
      <point x="89" y="1142.0"/>
      <point x="363" y="1476.0"/>
      <point x="589" y="1476.0" type="qcurve" smooth="yes"/>
      <point x="816" y="1476.0"/>
      <point x="1089" y="1142.0"/>
      <point x="1089" y="752.0" type="qcurve" smooth="yes"/>
      <point x="1089" y="720.0" type="line" smooth="yes"/>
      <point x="1089" y="310.0"/>
      <point x="816" y="-20.0"/>
      <point x="589" y="-20.0" type="qcurve" smooth="yes"/>
      <point x="363" y="-20.0"/>
      <point x="89" y="310.0"/>
    </contour>
    <contour>
      <point x="109" y="702.0" type="line" smooth="yes"/>
      <point x="109" y="320"/>
      <point x="370" y="0"/>
      <point x="588" y="0" type="qcurve" smooth="yes"/>
      <point x="809" y="0"/>
      <point x="1069" y="319"/>
      <point x="1069" y="704.0" type="qcurve" smooth="yes"/>
      <point x="1069" y="770.0" type="line" smooth="yes"/>
      <point x="1069" y="1133"/>
      <point x="808" y="1457"/>
      <point x="589" y="1457" type="qcurve" smooth="yes"/>
      <point x="370" y="1457"/>
      <point x="109" y="1133"/>
      <point x="109" y="770.0" type="qcurve" smooth="yes"/>
    </contour>
    <contour>
      <point x="1067" y="-232" type="line"/>
      <point x="633" y="199" type="line"/>
      <point x="645" y="211" type="line"/>
      <point x="1082.0" y="-219" type="line"/>
    </contour>
  </outline>
</glyph>
<glyph name="S" format="2">
  <advance width="892"/>
  <unicode hex="0053"/>
  <outline>
    <contour>
      <point x="31" y="350" type="qcurve" smooth="yes"/>
      <point x="31" y="431" type="line"/>
      <point x="54" y="431" type="line"/>
      <point x="54" y="362" type="line" smooth="yes"/>
      <point x="54" y="191"/>
      <point x="269" y="0"/>
      <point x="451" y="0" type="qcurve" smooth="yes"/>
      <point x="630" y="0"/>
      <point x="839" y="187"/>
      <point x="839" y="338" type="qcurve" smooth="yes"/>
      <point x="839" y="493"/>
      <point x="678" y="667"/>
      <point x="455" y="748" type="qcurve" smooth="yes"/>
      <point x="233" y="828"/>
      <point x="47" y="1000"/>
      <point x="47" y="1155.0" type="qcurve" smooth="yes"/>
      <point x="47" y="1311"/>
      <point x="252" y="1476.0"/>
      <point x="445" y="1476.0" type="qcurve" smooth="yes"/>
      <point x="651" y="1476.0"/>
      <point x="835" y="1261"/>
      <point x="835" y="1132" type="qcurve" smooth="yes"/>
      <point x="835" y="1061" type="line"/>
      <point x="813" y="1061" type="line"/>
      <point x="813" y="1130" type="line" smooth="yes"/>
      <point x="813" y="1253"/>
      <point x="645.0" y="1456"/>
      <point x="446" y="1456" type="qcurve" smooth="yes"/>
      <point x="257" y="1456"/>
      <point x="71" y="1302"/>
      <point x="71" y="1157" type="qcurve" smooth="yes"/>
      <point x="71" y="1010"/>
      <point x="240" y="852"/>
      <point x="461" y="772" type="qcurve" smooth="yes"/>
      <point x="682" y="693"/>
      <point x="862" y="505"/>
      <point x="862" y="342.0" type="qcurve" smooth="yes"/>
      <point x="862" y="178"/>
      <point x="637" y="-20.0"/>
      <point x="449" y="-20.0" type="qcurve" smooth="yes"/>
      <point x="260" y="-20.0"/>
      <point x="31" y="177"/>
    </contour>
  </outline>
</glyph>
<glyph name="bracketleft" format="2">
  <advance width="491"/>
  <unicode hex="005B"/>
  <outline>
    <contour>
      <point x="110.0" y="-310.0" type="line"/>
      <point x="110.0" y="1456.0" type="line"/>
      <point x="421.32" y="1456.0" type="line"/>
      <point x="421.32" y="1439.04" type="line"/>
      <point x="129.6" y="1439.04" type="line"/>
      <point x="129.6" y="-293.04" type="line"/>
      <point x="421.32" y="-293.04" type="line"/>
      <point x="421.32" y="-310.0" type="line"/>
    </contour>
  </outline>
</glyph>
<glyph name="l" format="2">
  <advance width="262"/>
  <unicode hex="006C"/>
  <outline>
    <contour>
      <point x="121.2" y="0.0" type="line"/>
      <point x="121.2" y="1458.0" type="line"/>
      <point x="140.8" y="1458.0" type="line"/>
      <point x="140.8" y="0.0" type="line"/>
    </contour>
  </outline>
</glyph>
<glyph name="m" format="2">
  <advance width="1418"/>
  <unicode hex="006D"/>
  <outline>
    <contour>
      <point x="119.8" y="0.0" type="line"/>
      <point x="119.8" y="914.0" type="line"/>
      <point x="139.72" y="914.0" type="line"/>
      <point x="139.56" y="740.4" type="line"/>
      <point x="139.56" y="740.4" type="line"/>
      <point x="175.96" y="827.92"/>
      <point x="333.28" y="935.0"/>
      <point x="452.36" y="934.0" type="qcurve" smooth="yes"/>
      <point x="566.88" y="933.0"/>
      <point x="713.32" y="821.4"/>
      <point x="719.84" y="737.04" type="qcurve"/>
      <point x="720.52" y="737.04" type="line"/>
      <point x="739.12" y="803.56"/>
      <point x="906.6" y="934.0"/>
      <point x="1029.6399999999999" y="934.0" type="qcurve" smooth="yes"/>
      <point x="1150.56" y="934.0"/>
      <point x="1308.2" y="791.32"/>
      <point x="1308.2" y="653.16" type="qcurve" smooth="yes"/>
      <point x="1308.2" y="0.0" type="line"/>
      <point x="1288.6" y="0.0" type="line"/>
      <point x="1288.6" y="648.16" type="line" smooth="yes"/>
      <point x="1288.6" y="779.88"/>
      <point x="1140.3200000000002" y="913.76"/>
      <point x="1025.3200000000002" y="913.76" type="qcurve" smooth="yes"/>
      <point x="908.36" y="913.76"/>
      <point x="745.52" y="788.04"/>
      <point x="723.8" y="715.16" type="qcurve"/>
      <point x="723.8" y="0.0" type="line"/>
      <point x="704.2" y="0.0" type="line"/>
      <point x="704.2" y="696.16" type="line" smooth="yes"/>
      <point x="704.2" y="797.88"/>
      <point x="558.48" y="913.76"/>
      <point x="449.32" y="913.76" type="qcurve" smooth="yes"/>
      <point x="334.52" y="913.76"/>
      <point x="182.28" y="808.04"/>
      <point x="139.4" y="715.16" type="qcurve"/>
      <point x="139.4" y="0.0" type="line"/>
    </contour>
  </outline>
</glyph>
<glyph name="n" format="2">
  <advance width="908"/>
  <unicode hex="006E"/>
  <anchor x="489.0" y="914.0" name="top"/>
  <outline>
    <contour>
      <point x="119.8" y="0.0" type="line"/>
      <point x="119.8" y="914.0" type="line"/>
      <point x="139.72" y="914.0" type="line"/>
      <point x="139.56" y="737.88" type="line"/>
      <point x="139.56" y="737.88" type="line"/>
      <point x="176.04" y="809.0"/>
      <point x="360.04" y="934.16"/>
      <point x="492.4" y="934.16" type="qcurve" smooth="yes"/>
      <point x="633.12" y="934.16"/>
      <point x="798.2" y="805.44"/>
      <point x="798.2" y="657.44" type="qcurve" smooth="yes"/>
      <point x="798.2" y="0.0" type="line"/>
      <point x="777.6" y="0.0" type="line"/>
      <point x="777.6" y="655.04" type="line" smooth="yes"/>
      <point x="777.6" y="792.32"/>
      <point x="625.8" y="913.76"/>
      <point x="489.84" y="913.76" type="qcurve" smooth="yes"/>
      <point x="364.68" y="913.76"/>
      <point x="183.96" y="794.36"/>
      <point x="139.4" y="716.64" type="qcurve"/>
      <point x="139.4" y="0.0" type="line"/>
    </contour>
  </outline>
</glyph>
<glyph name="t" format="2">
  <advance width="494"/>
  <unicode hex="0074"/>
  <outline>
    <contour>
      <point x="4.0" y="893.28" type="line"/>
      <point x="4.0" y="914.0" type="line"/>
      <point x="472.4" y="914.0" type="line"/>
      <point x="472.4" y="893.28" type="line"/>
    </contour>
    <contour>
      <point x="163.0" y="260.96" type="qcurve" smooth="yes"/>
      <point x="163.0" y="900.72" type="line"/>
      <point x="163.0" y="905.72" type="line"/>
      <point x="163.0" y="1322.0" type="line"/>
      <point x="183.6" y="1322.0" type="line"/>
      <point x="183.6" y="240.95999999999998" type="line" smooth="yes"/>
      <point x="183.6" y="103.96000000000001"/>
      <point x="286.88" y="-1.0399999999999991"/>
      <point x="365.8" y="-1.0399999999999991" type="qcurve" smooth="yes"/>
      <point x="405.84" y="-1.0399999999999991"/>
      <point x="460.56" y="9.120000000000001"/>
      <point x="470.44" y="12.96" type="qcurve"/>
      <point x="470.44" y="-6.0" type="line"/>
      <point x="461.08" y="-10.0"/>
      <point x="406.24" y="-20.0"/>
      <point x="365.36" y="-20.0" type="qcurve" smooth="yes"/>
      <point x="275.8" y="-20.0"/>
      <point x="163.0" y="95.32"/>
    </contour>
  </outline>
</glyph>
<glyph name="x" format="2">
  <advance width="700"/>
  <unicode hex="0078"/>
  <outline>
    <contour>
      <point x="21" y="0.0" type="line"/>
      <point x="345" y="479" type="line"/>
      <point x="348" y="479" type="line"/>
      <point x="645" y="914.0" type="line"/>
      <point x="666" y="914.0" type="line"/>
      <point x="356" y="459.0" type="line"/>
      <point x="353" y="459.0" type="line"/>
      <point x="42" y="0.0" type="line"/>
    </contour>
    <contour>
      <point x="39" y="914.0" type="line"/>
      <point x="62" y="914.0" type="line"/>
      <point x="356" y="478" type="line"/>
      <point x="356" y="478" type="line"/>
      <point x="677" y="0.0" type="line"/>
      <point x="654" y="0.0" type="line"/>
      <point x="345" y="461" type="line"/>
      <point x="345" y="461" type="line"/>
    </contour>
  </outline>
</glyph>
<glyph name="y" format="2">
  <advance width="772"/>
  <unicode hex="0079"/>
  <anchor x="391.0" y="914.0" name="top"/>
  <outline>
    <contour>
      <point x="27.840000000000003" y="-418.0" type="qcurve"/>
      <point x="27.840000000000003" y="-395.04" type="line"/>
      <point x="36.360000000000014" y="-400.04"/>
      <point x="88.56" y="-417.04"/>
      <point x="114.08000000000001" y="-417.04" type="qcurve" smooth="yes"/>
      <point x="175.95999999999998" y="-417.04"/>
      <point x="290.8" y="-225.6"/>
      <point x="378.12" y="-2.04" type="qcurve"/>
      <point x="374.8" y="0.8" type="line"/>
      <point x="13.599999999999994" y="914.0" type="line"/>
      <point x="33.31999999999999" y="914.0" type="line"/>
      <point x="346.32" y="124.8" type="line" smooth="yes"/>
      <point x="359.16" y="93.96000000000001"/>
      <point x="369.2" y="66.8"/>
      <point x="386.2" y="23.8" type="qcurve"/>
      <point x="387.04" y="23.8" type="line"/>
      <point x="402.04" y="63.8"/>
      <point x="412.24" y="93.8"/>
      <point x="425.08000000000004" y="125.8" type="qcurve" smooth="yes"/>
      <point x="735.08" y="914.0" type="line"/>
      <point x="754.56" y="914.0" type="line"/>
      <point x="362.8" y="-88.0" type="line" smooth="yes"/>
      <point x="303.76" y="-240.64"/>
      <point x="182.68" y="-436.0"/>
      <point x="114.56" y="-436.0" type="qcurve" smooth="yes"/>
      <point x="82.88" y="-436.0"/>
      <point x="38.52000000000001" y="-423.16"/>
    </contour>
  </outline>
</glyph>
<glyph name="braceleft" format="2">
  <advance width="610"/>
  <unicode hex="007B"/>
  <outline>
    <contour>
      <point x="531.12" y="-312.0" type="line"/>
      <point x="351.28" y="-312.0"/>
      <point x="230.16" y="-85.72"/>
      <point x="272.2" y="110.6" type="qcurve" smooth="yes"/>
      <point x="317.6" y="325.32" type="line" smooth="yes"/>
      <point x="343.64" y="445.32"/>
      <point x="205.56" y="566.32"/>
      <point x="90.0" y="566.32" type="qcurve"/>
      <point x="90.0" y="581.68" type="line"/>
      <point x="205.56" y="581.68"/>
      <point x="343.64" y="702.68"/>
      <point x="317.6" y="822.68" type="qcurve" smooth="yes"/>
      <point x="272.2" y="1037.4" type="line" smooth="yes"/>
      <point x="230.16" y="1233.72"/>
      <point x="351.28" y="1460.0"/>
      <point x="531.12" y="1460.0" type="qcurve"/>
      <point x="531.12" y="1443.52" type="line"/>
      <point x="365.32" y="1443.52"/>
      <point x="248.76" y="1227.32"/>
      <point x="291.64" y="1028.72" type="qcurve" smooth="yes"/>
      <point x="337.2" y="814.0" type="line" smooth="yes"/>
      <point x="360.4" y="705.68"/>
      <point x="236.24" y="583.6"/>
      <point x="126.75999999999999" y="574.0" type="qcurve"/>
      <point x="236.24" y="564.4"/>
      <point x="360.4" y="442.32"/>
      <point x="337.2" y="334.0" type="qcurve" smooth="yes"/>
      <point x="291.64" y="119.28" type="line" smooth="yes"/>
      <point x="248.76" y="-79.32"/>
      <point x="365.32" y="-295.52"/>
      <point x="531.12" y="-295.52" type="qcurve"/>
    </contour>
  </outline>
</glyph>
<glyph name="asciitilde" format="2">
  <advance width="1270"/>
  <unicode hex="007E"/>
  <outline>
    <contour>
      <point x="228.0" y="639.2" type="qcurve"/>
      <point x="228.0" y="663.0" type="line"/>
      <point x="269.0" y="716.0"/>
      <point x="357.0" y="766.0"/>
      <point x="409.0" y="766.0" type="qcurve" smooth="yes"/>
      <point x="455.0" y="766.0"/>
      <point x="565.0" y="730.0"/>
      <point x="633.0" y="698.0" type="qcurve" smooth="yes"/>
      <point x="707.0" y="663.0"/>
      <point x="815.0" y="630.0"/>
      <point x="862.0" y="630.0" type="qcurve" smooth="yes"/>
      <point x="918.0" y="630.0"/>
      <point x="1007.0" y="681.0"/>
      <point x="1041.0" y="735.0" type="qcurve"/>
      <point x="1041.0" y="710.2" type="line"/>
      <point x="1007.0" y="660.2"/>
      <point x="918.0" y="612.2"/>
      <point x="862.0" y="612.2" type="qcurve" smooth="yes"/>
      <point x="815.0" y="612.2"/>
      <point x="701.0" y="646.2"/>
      <point x="635.0" y="677.2" type="qcurve" smooth="yes"/>
      <point x="575.0" y="706.2"/>
      <point x="455.0" y="748.2"/>
      <point x="409.0" y="748.2" type="qcurve" smooth="yes"/>
      <point x="357.0" y="748.2"/>
      <point x="274.0" y="699.2"/>
    </contour>
  </outline>
</glyph>
<glyph name="dollar.rvrn" format="2">
  <advance width="927"/>
  <outline>
    <contour>
      <point x="67.0" y="421.32" type="qcurve" smooth="yes"/>
      <point x="67.0" y="433.32" type="line"/>
      <point x="86.6" y="433.32" type="line"/>
      <point x="86.6" y="421.32" type="line" smooth="yes"/>
      <point x="86.6" y="233.04"/>
      <point x="314.4" y="17.12"/>
      <point x="483.04" y="17.12" type="qcurve" smooth="yes"/>
      <point x="655.68" y="17.12"/>
      <point x="872.48" y="210.76"/>
      <point x="872.48" y="363.56" type="qcurve" smooth="yes"/>
      <point x="872.48" y="501.8"/>
      <point x="702.12" y="671.96"/>
      <point x="501.48" y="731.08" type="qcurve" smooth="yes"/>
      <point x="310.68" y="787.04"/>
      <point x="101.0" y="965.12"/>
      <point x="101.0" y="1110.72" type="qcurve" smooth="yes"/>
      <point x="101.0" y="1268.8"/>
      <point x="311.76" y="1456.0"/>
      <point x="473.04" y="1456.0" type="qcurve" smooth="yes"/>
      <point x="651.16" y="1456.0"/>
      <point x="869.08" y="1220.28"/>
      <point x="869.08" y="1040.68" type="qcurve" smooth="yes"/>
      <point x="869.08" y="1028.68" type="line"/>
      <point x="849.48" y="1028.68" type="line"/>
      <point x="849.48" y="1040.68" type="line" smooth="yes"/>
      <point x="849.48" y="1211.28"/>
      <point x="642.68" y="1438.88"/>
      <point x="473.04" y="1438.88" type="qcurve" smooth="yes"/>
      <point x="320.4" y="1438.88"/>
      <point x="120.76" y="1263.08"/>
      <point x="120.76" y="1116.44" type="qcurve" smooth="yes"/>
      <point x="120.76" y="974.88"/>
      <point x="320.8" y="808.52"/>
      <point x="511.6" y="752.08" type="qcurve" smooth="yes"/>
      <point x="715.56" y="691.48"/>
      <point x="892.24" y="511.88"/>
      <point x="892.24" y="369.28" type="qcurve" smooth="yes"/>
      <point x="892.24" y="204.2"/>
      <point x="664.32" y="0.0"/>
      <point x="483.04" y="0.0" type="qcurve" smooth="yes"/>
      <point x="306.08000000000004" y="0.0"/>
      <point x="67.0" y="225.4"/>
    </contour>
    <contour>
      <point x="469.36" y="-150.0" type="line"/>
      <point x="469.36" y="6.0" type="line"/>
      <point x="486.88" y="6.0" type="line"/>
      <point x="486.88" y="4.0" type="line"/>
      <point x="487.52" y="2.0" type="line"/>
      <point x="487.52" y="-150.0" type="line"/>
    </contour>
    <contour>
      <point x="468.72" y="1450.0" type="line"/>
      <point x="468.72" y="1452.0" type="line"/>
      <point x="468.08" y="1454.0" type="line"/>
      <point x="468.08" y="1606.0" type="line"/>
      <point x="486.24" y="1606.0" type="line"/>
      <point x="486.24" y="1450.0" type="line"/>
    </contour>
  </outline>
</glyph>
